<svg width="302" height="247" viewBox="0 0 302 247" fill="none" xmlns="http://www.w3.org/2000/svg">
<g clip-path="url(#clip0_7_78)">
<path d="M301.079 160.946C296.787 160.38 281.081 161.416 271.465 162.138C271.982 158.554 272.25 154.907 272.25 151.214C272.25 150.652 272.241 150.091 272.227 149.529L272.25 149.548C317.566 43.2665 285.336 0 285.336 0L176.087 57.5639C173.389 57.1074 170.658 56.724 167.899 56.4136C173.435 37.3184 167.89 0 167.89 0C120.467 23.0941 77.3924 69.5789 66.7415 81.571C65.8959 82.2009 65.0549 82.84 64.2324 83.4883C51.8995 93.1842 42.2005 104.948 36.0457 118.059C30.2374 114.338 13.6626 103.825 9.25904 102.177C9.25904 102.177 -0.190448 106.605 14.1247 125.102C14.1247 125.102 10.003 125.554 0.886193 124.103C0.886193 124.103 -5.1393 128.836 14.1986 141.545C14.1986 141.545 11.9899 143.49 9.12041 142.956C9.12041 142.956 12.4751 155.957 28.8095 157.6C32.9867 207.527 85.8253 247.005 150.391 247.005C192.556 247.005 229.716 230.169 251.591 204.583C268.923 212.188 279.463 200.867 279.463 200.867C276.377 199.894 275.254 196.845 275.254 196.845C300.927 194.489 297.563 186.729 297.563 186.729C287.883 183.401 284.094 180.817 284.094 180.817C307.946 170.195 301.07 160.946 301.07 160.946H301.079Z" fill="#191919"/>
<path d="M95.3498 168.346C94.6567 152.501 89.2643 107.536 77.2456 101.223C76.9037 101.045 76.5802 100.84 76.2568 100.639C73.6691 99.041 61.7845 94.0789 51.6188 109.6C51.3323 110.038 25.9365 153.012 61.3224 184.337C63.9794 186.688 69.1223 188.646 74.7088 189.021C83.0678 189.582 90.7706 184.492 93.6586 176.723C94.6244 174.13 95.5162 172.149 95.3498 168.346Z" fill="#AAE874"/>
<path d="M201.626 204.642C235.946 191.586 257.183 164.11 249.061 143.271C240.939 122.433 206.533 116.124 172.212 129.18C137.892 142.236 116.655 169.713 124.777 190.551C132.899 211.389 167.306 217.698 201.626 204.642Z" fill="#AAE874"/>
<path d="M212.274 187.656C217.715 187.656 222.125 173.86 222.125 156.842C222.125 139.825 217.715 126.029 212.274 126.029C206.833 126.029 202.422 139.825 202.422 156.842C202.422 173.86 206.833 187.656 212.274 187.656Z" fill="#282828"/>
<path d="M82.7675 164.767C86.1922 164.767 88.9686 152.461 88.9686 137.282C88.9686 122.102 86.1922 109.796 82.7675 109.796C79.3427 109.796 76.5664 122.102 76.5664 137.282C76.5664 152.461 79.3427 164.767 82.7675 164.767Z" fill="#282828"/>
<path d="M267.927 125.673C285.019 97.9637 280.467 37.1176 278.942 31.9911C277.399 26.8145 272.316 26.8054 272.316 26.8054C260.732 26.5086 216.423 64.877 212.145 68.602C239.098 81.0643 259.415 101.438 267.927 125.668V125.673Z" fill="#E1F2D1"/>
</g>
<defs>
<clipPath id="clip0_7_78">
<rect width="302" height="247" fill="white"/>
</clipPath>
</defs>
</svg>
