<svg width="900" height="247" viewBox="0 0 900 247" fill="none" xmlns="http://www.w3.org/2000/svg">
<g clip-path="url(#clip0_15_16)">
<path d="M301.079 160.946C296.787 160.38 281.081 161.416 271.465 162.138C271.982 158.554 272.25 154.907 272.25 151.214C272.25 150.652 272.241 150.091 272.227 149.529L272.25 149.548C317.566 43.2665 285.336 0 285.336 0L176.087 57.5639C173.389 57.1074 170.658 56.724 167.899 56.4136C173.435 37.3184 167.89 0 167.89 0C120.467 23.0941 77.3924 69.5789 66.7415 81.571C65.8959 82.2009 65.0549 82.84 64.2324 83.4883C51.8995 93.1842 42.2005 104.948 36.0457 118.059C30.2374 114.338 13.6626 103.825 9.25904 102.177C9.25904 102.177 -0.190448 106.605 14.1247 125.102C14.1247 125.102 10.003 125.554 0.886193 124.103C0.886193 124.103 -5.1393 128.836 14.1986 141.545C14.1986 141.545 11.9899 143.49 9.12041 142.956C9.12041 142.956 12.4751 155.957 28.8095 157.6C32.9867 207.527 85.8253 247.005 150.391 247.005C192.556 247.005 229.716 230.169 251.591 204.583C268.923 212.188 279.463 200.867 279.463 200.867C276.377 199.894 275.254 196.845 275.254 196.845C300.927 194.489 297.563 186.729 297.563 186.729C287.883 183.401 284.094 180.817 284.094 180.817C307.946 170.195 301.07 160.946 301.07 160.946H301.079Z" fill="#191919"/>
<path d="M95.3498 168.346C94.6567 152.501 89.2643 107.536 77.2456 101.223C76.9037 101.045 76.5802 100.84 76.2568 100.639C73.6691 99.041 61.7845 94.0789 51.6188 109.6C51.3323 110.038 25.9365 153.012 61.3224 184.337C63.9794 186.688 69.1223 188.646 74.7088 189.021C83.0678 189.582 90.7706 184.492 93.6586 176.723C94.6244 174.13 95.5162 172.149 95.3498 168.346Z" fill="#AAE874"/>
<path d="M201.626 204.642C235.946 191.586 257.183 164.11 249.061 143.271C240.939 122.433 206.533 116.124 172.212 129.18C137.892 142.236 116.655 169.713 124.777 190.551C132.899 211.389 167.306 217.698 201.626 204.642Z" fill="#AAE874"/>
<path d="M212.273 187.656C217.714 187.656 222.125 173.86 222.125 156.842C222.125 139.825 217.714 126.029 212.273 126.029C206.833 126.029 202.422 139.825 202.422 156.842C202.422 173.86 206.833 187.656 212.273 187.656Z" fill="#282828"/>
<path d="M82.7675 164.767C86.1922 164.767 88.9686 152.461 88.9686 137.282C88.9686 122.102 86.1922 109.796 82.7675 109.796C79.3427 109.796 76.5664 122.102 76.5664 137.282C76.5664 152.461 79.3427 164.767 82.7675 164.767Z" fill="#282828"/>
<path d="M267.927 125.673C285.019 97.9637 280.467 37.1176 278.942 31.9911C277.399 26.8145 272.316 26.8054 272.316 26.8054C260.732 26.5086 216.423 64.877 212.145 68.602C239.098 81.0643 259.415 101.438 267.927 125.668V125.673Z" fill="#E1F2D1"/>
</g>
<path d="M421.044 183.322V201.087H366V106.881H384.755V183.322H421.044Z" fill="black"/>
<path d="M463.445 187.224C470.242 187.224 475.675 184.396 478.666 180.494L492.802 188.567C486.413 197.716 476.224 202.968 463.174 202.968C440.342 202.968 425.935 187.493 425.935 167.437C425.935 147.382 440.478 131.907 461.817 131.907C481.935 131.907 496.2 147.651 496.2 167.437C496.2 169.996 495.929 172.28 495.522 174.57H444.283C446.732 183.45 454.206 187.218 463.445 187.218V187.224ZM478.666 161.117C476.489 151.425 469.15 147.523 461.811 147.523C452.43 147.523 446.047 152.5 444.006 161.117H478.666Z" fill="black"/>
<path d="M577.068 133.8V201.087H559.534V193.148C554.643 199.206 547.304 202.974 537.38 202.974C519.304 202.974 504.354 187.499 504.354 167.444C504.354 147.388 519.304 131.913 537.38 131.913C547.304 131.913 554.643 135.681 559.534 141.739V133.8H577.068ZM559.534 167.444C559.534 156.14 551.516 148.469 540.643 148.469C529.77 148.469 521.888 156.14 521.888 167.444C521.888 178.747 529.905 186.418 540.643 186.418C551.38 186.418 559.534 178.747 559.534 167.444Z" fill="black"/>
<path d="M665.681 167.444C665.681 187.493 650.731 202.974 632.519 202.974C622.596 202.974 615.392 199.34 610.501 193.148V228H592.967V133.794H610.501V141.733C615.392 135.541 622.596 131.907 632.519 131.907C650.731 131.907 665.681 147.382 665.681 167.437V167.444ZM648.153 167.444C648.153 156.14 640.136 148.469 629.263 148.469C618.389 148.469 610.507 156.14 610.507 167.444C610.507 178.747 618.525 186.418 629.263 186.418C640 186.418 648.153 178.747 648.153 167.444Z" fill="black"/>
<path d="M674.519 153.984C674.519 126.393 695.174 105 723.988 105C741.386 105 756.743 113.745 764.897 127.205L748.726 136.494C744.106 128.151 734.861 123.034 723.988 123.034C705.369 123.034 693.139 135.816 693.139 153.984C693.139 172.152 705.369 184.799 723.988 184.799C734.861 184.799 744.236 179.688 748.726 171.474L764.897 180.763C756.879 194.222 741.522 202.968 723.988 202.968C695.174 202.968 674.519 181.435 674.519 153.984Z" fill="black"/>
<path d="M845.227 133.8V201.087H827.693V193.148C822.802 199.206 815.463 202.974 805.54 202.974C787.463 202.974 772.513 187.499 772.513 167.444C772.513 147.388 787.463 131.913 805.54 131.913C815.463 131.913 822.802 135.681 827.693 141.739V133.8H845.227ZM827.693 167.444C827.693 156.14 819.676 148.469 808.802 148.469C797.929 148.469 790.047 156.14 790.047 167.444C790.047 178.747 798.065 186.418 808.802 186.418C819.54 186.418 827.693 178.747 827.693 167.444Z" fill="black"/>
<path d="M884.643 150.485V178.479C884.643 185.746 889.947 185.88 900 185.343V201.087C875.398 203.78 867.109 196.647 867.109 178.479V150.485H855.286V133.794H867.109V120.2L884.643 114.954V133.794H900V150.485H884.643Z" fill="black"/>
<defs>
<clipPath id="clip0_15_16">
<rect width="302" height="247" fill="white"/>
</clipPath>
</defs>
</svg>
